<svg width="145" height="45" viewBox="0 0 145 45" fill="none" xmlns="http://www.w3.org/2000/svg">
<g filter="url(#filter0_dd_8_93)">
<g clip-path="url(#clip0_8_93)">
<rect x="3" y="2" width="32" height="32" rx="8" fill="white"/>
<rect x="3" y="2" width="32" height="32" rx="8" fill="url(#paint0_linear_8_93)"/>
<path fill-rule="evenodd" clip-rule="evenodd" d="M19 14.0779C16.8338 14.0779 15.0777 15.834 15.0777 18.0002C15.0777 20.1665 16.8338 21.9226 19 21.9226C21.1663 21.9226 22.9223 20.1665 22.9223 18.0002C22.9223 15.834 21.1663 14.0779 19 14.0779ZM15 18.0002C15 15.7911 16.7909 14.0002 19 14.0002C21.2092 14.0002 23 15.7911 23 18.0002C23 20.2094 21.2092 22.0002 19 22.0002C16.7909 22.0002 15 20.2094 15 18.0002Z" fill="#D0D5DD"/>
<path fill-rule="evenodd" clip-rule="evenodd" d="M19 15.3201C17.5201 15.3201 16.3204 16.5198 16.3204 17.9997C16.3204 19.4796 17.5201 20.6793 19 20.6793C20.4799 20.6793 21.6796 19.4796 21.6796 17.9997C21.6796 16.5198 20.4799 15.3201 19 15.3201ZM16.2427 17.9997C16.2427 16.4769 17.4772 15.2424 19 15.2424C20.5228 15.2424 21.7573 16.4769 21.7573 17.9997C21.7573 19.5225 20.5228 20.757 19 20.757C17.4772 20.757 16.2427 19.5225 16.2427 17.9997Z" fill="#D0D5DD"/>
<path d="M35 17.9609L35 18.0386L3 18.0386L3 17.9609L35 17.9609Z" fill="#D0D5DD"/>
<path d="M29.602 2H29.6796V34H29.602V2Z" fill="#D0D5DD"/>
<path d="M13.6408 2H13.7184V34H13.6408V2Z" fill="#D0D5DD"/>
<path d="M24.2816 2H24.3592V34H24.2816V2Z" fill="#D0D5DD"/>
<path d="M8.32037 2H8.39804V34H8.32037V2Z" fill="#D0D5DD"/>
<path d="M35 28.6016L35 28.6792L3 28.6792L3 28.6016L35 28.6016Z" fill="#D0D5DD"/>
<path d="M35 23.2812L35 23.3589L3 23.3589L3 23.2812L35 23.2812Z" fill="#D0D5DD"/>
<g filter="url(#filter1_dd_8_93)">
<circle cx="19" cy="18" r="8" fill="url(#paint1_linear_8_93)"/>
</g>
<g filter="url(#filter2_b_8_93)">
<path d="M3 18H35V21.2C35 25.6804 35 27.9206 34.1281 29.6319C33.3611 31.1372 32.1372 32.3611 30.6319 33.1281C28.9206 34 26.6804 34 22.2 34H15.8C11.3196 34 9.07937 34 7.36808 33.1281C5.86278 32.3611 4.63893 31.1372 3.87195 29.6319C3 27.9206 3 25.6804 3 21.2V18Z" fill="white" fill-opacity="0.2"/>
</g>
</g>
<rect x="3.15" y="2.15" width="31.7" height="31.7" rx="7.85" stroke="#D0D5DD" stroke-width="0.3"/>
</g>
<path d="M60.2852 19.7734C60.6953 19.901 61.069 20.0833 61.4062 20.3203C61.7435 20.5573 62.0306 20.8626 62.2676 21.2363C62.5046 21.6009 62.6868 22.0339 62.8145 22.5352C62.9421 23.0365 63.0059 23.6107 63.0059 24.2578V25.2422C63.0059 28.4141 61.4199 30 58.248 30H47.5156V10.3945H57.6875C60.8594 10.3945 62.4453 11.985 62.4453 15.166V15.5215C62.4453 16.6243 62.2676 17.5267 61.9121 18.2285C61.5658 18.9212 61.0234 19.4362 60.2852 19.7734ZM50.2637 21.4551V27.252H58.166C58.9043 27.252 59.4375 27.0788 59.7656 26.7324C60.0938 26.3861 60.2578 25.8438 60.2578 25.1055V23.5879C60.2578 22.8405 60.0938 22.2982 59.7656 21.9609C59.4375 21.6237 58.9043 21.4551 58.166 21.4551H50.2637ZM50.2637 13.1426V18.7207H57.7969C58.4714 18.6934 58.9544 18.5111 59.2461 18.1738C59.5469 17.8275 59.6973 17.2988 59.6973 16.5879V15.3027C59.6973 14.5553 59.5332 14.0085 59.2051 13.6621C58.877 13.3158 58.3438 13.1426 57.6055 13.1426H50.2637ZM69.6094 18.1328V30H66.9297V15.4395H69.6094V18.0098C69.6276 17.6543 69.7096 17.3216 69.8555 17.0117C70.0013 16.6927 70.1927 16.4193 70.4297 16.1914C70.6758 15.9544 70.9583 15.7721 71.2773 15.6445C71.5964 15.5078 71.9382 15.4395 72.3027 15.4395H75.1602C75.5339 15.4395 75.8802 15.5124 76.1992 15.6582C76.5273 15.7949 76.8145 15.9863 77.0605 16.2324C77.3066 16.4694 77.498 16.752 77.6348 17.0801C77.7806 17.4082 77.8535 17.7591 77.8535 18.1328V20.5938H75.1602V18.1328H69.6094ZM89.3242 23.6426C89.3242 23.2689 89.3926 22.9225 89.5293 22.6035C89.6751 22.2754 89.8665 21.9883 90.1035 21.7422C90.3496 21.4961 90.6367 21.3047 90.9648 21.168C91.293 21.0221 91.6393 20.9492 92.0039 20.9492H98.9492V18.1328H90.1582V15.4395H98.9492C99.3229 15.4395 99.6738 15.5124 100.002 15.6582C100.33 15.7949 100.613 15.9863 100.85 16.2324C101.096 16.4694 101.287 16.752 101.424 17.0801C101.57 17.4082 101.643 17.7591 101.643 18.1328V30H98.9492V27.5391C98.9219 27.8763 98.8307 28.1953 98.6758 28.4961C98.5208 28.7969 98.3203 29.0612 98.0742 29.2891C97.8372 29.5078 97.5638 29.681 97.2539 29.8086C96.944 29.9362 96.6159 30 96.2695 30H92.0039C91.6393 30 91.293 29.9316 90.9648 29.7949C90.6367 29.6491 90.3496 29.4577 90.1035 29.2207C89.8665 28.9746 89.6751 28.6875 89.5293 28.3594C89.3926 28.0312 89.3242 27.6803 89.3242 27.3066V23.6426ZM92.0039 27.3066H98.9492V23.6426H92.0039V27.3066ZM119.02 30H116.326V18.1328H108.82V30H106.141V15.4395H108.82V18.0098C108.839 17.6543 108.921 17.3216 109.066 17.0117C109.212 16.6927 109.404 16.4193 109.641 16.1914C109.887 15.9544 110.169 15.7721 110.488 15.6445C110.807 15.5078 111.149 15.4395 111.514 15.4395H116.326C116.7 15.4395 117.051 15.5124 117.379 15.6582C117.707 15.7949 117.99 15.9863 118.227 16.2324C118.473 16.4694 118.664 16.752 118.801 17.0801C118.947 17.4082 119.02 17.7591 119.02 18.1328V30ZM122.656 15.4395H126.211V10.9551H128.904V15.4395H133.689V18.1328H128.904V27.3066H133.689V30H128.904C128.54 30 128.193 29.9316 127.865 29.7949C127.537 29.6491 127.25 29.4577 127.004 29.2207C126.758 28.9746 126.562 28.6875 126.416 28.3594C126.279 28.0312 126.211 27.6803 126.211 27.3066V18.1328H122.656V15.4395Z" fill="black"/>
<path d="M86.9169 17.616C86.5089 17.616 86.1489 17.484 85.8369 17.22C85.5489 16.956 85.4049 16.656 85.4049 16.32C85.4049 15.648 85.8609 15.312 86.7729 15.312C87.1089 15.312 87.4449 15.432 87.7809 15.672C88.1169 15.888 88.2849 16.164 88.2849 16.5C88.2849 16.788 88.1289 17.052 87.8169 17.292C87.5049 17.508 87.2049 17.616 86.9169 17.616ZM80.2569 30.396C79.7289 30.396 79.2969 30.228 78.9609 29.892C78.6009 29.532 78.4209 28.908 78.4209 28.02C78.4209 27.516 78.5409 26.94 78.7809 26.292C78.9969 25.62 79.2729 24.948 79.6089 24.276C79.9689 23.604 80.3169 23.004 80.6529 22.476C81.9969 20.292 83.1009 19.188 83.9649 19.164C84.1809 19.164 84.4449 19.26 84.7569 19.452C85.0689 19.62 85.2249 19.812 85.2249 20.028C85.2249 20.028 84.3129 21.204 82.4889 23.556C80.6889 25.884 79.7889 27.54 79.7889 28.524C79.7889 29.292 80.0889 29.676 80.6889 29.676C81.0729 29.676 81.5649 29.52 82.1649 29.208C82.7889 28.872 83.4369 28.452 84.1089 27.948C84.7809 27.444 85.4169 26.904 86.0169 26.328C86.6409 25.752 87.1449 25.224 87.5289 24.744C87.7689 24.432 87.9729 24.216 88.1409 24.096C88.3329 23.976 88.4529 23.916 88.5009 23.916C88.5969 23.916 88.6449 23.988 88.6449 24.132C88.6449 24.252 88.5009 24.492 88.2129 24.852C87.9489 25.212 87.5769 25.632 87.0969 26.112C86.5209 26.688 85.8849 27.312 85.1889 27.984C84.4929 28.656 83.7369 29.232 82.9209 29.712C82.1049 30.168 81.2169 30.396 80.2569 30.396Z" fill="#013F2D"/>
<defs>
<filter id="filter0_dd_8_93" x="0" y="0" width="38" height="38" filterUnits="userSpaceOnUse" color-interpolation-filters="sRGB">
<feFlood flood-opacity="0" result="BackgroundImageFix"/>
<feColorMatrix in="SourceAlpha" type="matrix" values="0 0 0 0 0 0 0 0 0 0 0 0 0 0 0 0 0 0 127 0" result="hardAlpha"/>
<feOffset dy="1"/>
<feGaussianBlur stdDeviation="1"/>
<feColorMatrix type="matrix" values="0 0 0 0 0.0627451 0 0 0 0 0.0941176 0 0 0 0 0.156863 0 0 0 0.06 0"/>
<feBlend mode="normal" in2="BackgroundImageFix" result="effect1_dropShadow_8_93"/>
<feColorMatrix in="SourceAlpha" type="matrix" values="0 0 0 0 0 0 0 0 0 0 0 0 0 0 0 0 0 0 127 0" result="hardAlpha"/>
<feOffset dy="1"/>
<feGaussianBlur stdDeviation="1.5"/>
<feColorMatrix type="matrix" values="0 0 0 0 0.0627451 0 0 0 0 0.0941176 0 0 0 0 0.156863 0 0 0 0.1 0"/>
<feBlend mode="normal" in2="effect1_dropShadow_8_93" result="effect2_dropShadow_8_93"/>
<feBlend mode="normal" in="SourceGraphic" in2="effect2_dropShadow_8_93" result="shape"/>
</filter>
<filter id="filter1_dd_8_93" x="8" y="8" width="22" height="22" filterUnits="userSpaceOnUse" color-interpolation-filters="sRGB">
<feFlood flood-opacity="0" result="BackgroundImageFix"/>
<feColorMatrix in="SourceAlpha" type="matrix" values="0 0 0 0 0 0 0 0 0 0 0 0 0 0 0 0 0 0 127 0" result="hardAlpha"/>
<feOffset dy="1"/>
<feGaussianBlur stdDeviation="1"/>
<feColorMatrix type="matrix" values="0 0 0 0 0.0627451 0 0 0 0 0.0941176 0 0 0 0 0.156863 0 0 0 0.06 0"/>
<feBlend mode="normal" in2="BackgroundImageFix" result="effect1_dropShadow_8_93"/>
<feColorMatrix in="SourceAlpha" type="matrix" values="0 0 0 0 0 0 0 0 0 0 0 0 0 0 0 0 0 0 127 0" result="hardAlpha"/>
<feOffset dy="1"/>
<feGaussianBlur stdDeviation="1.5"/>
<feColorMatrix type="matrix" values="0 0 0 0 0.0627451 0 0 0 0 0.0941176 0 0 0 0 0.156863 0 0 0 0.1 0"/>
<feBlend mode="normal" in2="effect1_dropShadow_8_93" result="effect2_dropShadow_8_93"/>
<feBlend mode="normal" in="SourceGraphic" in2="effect2_dropShadow_8_93" result="shape"/>
</filter>
<filter id="filter2_b_8_93" x="2" y="17" width="34" height="18" filterUnits="userSpaceOnUse" color-interpolation-filters="sRGB">
<feFlood flood-opacity="0" result="BackgroundImageFix"/>
<feGaussianBlur in="BackgroundImageFix" stdDeviation="0.5"/>
<feComposite in2="SourceAlpha" operator="in" result="effect1_backgroundBlur_8_93"/>
<feBlend mode="normal" in="SourceGraphic" in2="effect1_backgroundBlur_8_93" result="shape"/>
</filter>
<linearGradient id="paint0_linear_8_93" x1="19" y1="2" x2="19" y2="34" gradientUnits="userSpaceOnUse">
<stop stop-color="white"/>
<stop offset="1" stop-color="#D0D5DD"/>
</linearGradient>
<linearGradient id="paint1_linear_8_93" x1="15" y1="26" x2="23" y2="10" gradientUnits="userSpaceOnUse">
<stop/>
<stop offset="1" stop-color="#2B2B2B"/>
</linearGradient>
<clipPath id="clip0_8_93">
<rect x="3" y="2" width="32" height="32" rx="8" fill="white"/>
</clipPath>
</defs>
</svg>
